<svg xmlns="http://www.w3.org/2000/svg" xml:space="preserve" viewBox="0 0 1056 992"><path fill="#0C0E22" d="M267 751c-10-11-22-21-31-33-14-17-26-36-39-53-8-11-8-21 0-31l8-12c2-3 1-4-2-6l-22-10c-7-4-11-10-11-18l-2-116c-1-12 4-20 14-25l18-12c2-1 4-3 4-5l18-57-12-12-8-5c-7-2-13-9-13-16 0-5-2-9-7-11-7-3-10-9-8-16 1-5 0-10-5-13-5-5-6-18-1-24 4-4 4-9 2-14-4-5-1-17 5-23l7-11c1-1 2-4 1-6-1-8 6-18 15-19 5-1 8-5 8-10-1-9 10-18 19-16 5 2 7 0 8-5 0-4 3-7 7-8l7-3c4-1 7-1 11 2 6 4 9 3 13-2 3-5 8-4 12-4 20 3 37 11 50 24l22 25 3 4c115-62 230-62 345 0l6-8c14-19 31-34 54-41l19-4c4-1 7 1 9 5 3 4 7 4 11 2 9-7 24-1 27 9 1 4 3 5 7 5 11-2 20 5 20 16 0 4 4 8 8 9 9 1 15 10 14 19-1 6 2 10 6 13 6 6 8 12 10 19l-1 7c-4 7-4 10 1 15 5 6 4 19-2 24-5 3-5 8-4 12 2 8-2 14-9 17-4 2-7 6-7 11 1 6-5 15-12 15-5 1-8 4-11 9l-9 9 10 28 7 27 5 7 20 13c8 5 12 12 12 21v66l-2 53c0 8-4 14-12 18l-11 5c-2-3-7-4-5-8 6-2 7-6 6-11l2-37v-22l1-43v-31l-3-7-13-8h-2l-1 1-8 1v-14a353 353 0 0 0-76-149l-2-3c-27-33-61-56-99-75l-9 26 5 2 18 13c3 2 5 2 8 0s6-2 9 0c19 14 37 30 54 48l3 3c30 35 52 74 68 117l1 3c-1 2-1 4-4 1l-17-40c-14-28-31-54-52-78l-3-3c-15-17-33-32-51-45-2-2-5-3-7-1-4 3-7 2-10 0l-23-16-30 52-3 1 2-6 28-57 9-21c-90-39-178-38-267-1l1 6a397 397 0 0 0 38 79h-4l-30-53-23 16c-3 2-6 3-10 0-2-1-4-2-7 0-18 14-36 29-52 46l-2 3a395 395 0 0 0-70 119c-4-2-4-2-2-7 17-42 38-81 68-115l4-4c15-17 32-32 51-45 4-3 7-4 12-1h5l22-15 3-3-10-24-43 25c-21 14-39 30-55 50l-3 3-2 2c-32 39-55 82-69 130-3 9-7 18-4 28v139l1 13 17-15c4-1 6 0 7 3l16 28 16 26 15 23 7 8 41 31c4 2 7 6 8 10l10 27 3 7 7 16c2 3 4 5 7 6l42 14 33 7-5-7-4-6-2-7c10 10 19 21 32 28l-1-8 1-1c7 8 13 16 23 20l3-7c12 6 24 11 38 11 13 0 26-6 38-12l3 8c10-4 16-12 22-20l1 1-1 7h2c12-6 20-17 30-27l-2 7-2 5-1 1-5 6 1 2 58-16c22-7 22-7 30-28l1-1 1-5 1-1 9-21c4 2 3 5 1 8l-1 7-13 32 5-3 46-24 29-23c4-3 6-6 4-11-1-4 0-7 2-10 1-1 2-4 1-5l-10-15-1-2 4-3 12 19c19-24 35-49 49-75l12 7v6l9 12c6 9 6 19 0 27-12 17-23 35-36 51l-34 38c-8 8-15 9-25 3-9-5-15-5-24 0-44 25-91 38-141 47-5 1-10 4-14 6l-26 13-2-7a75 75 0 0 1-66 0l-2 6c-4-1-9-2-12-5-18-11-38-15-58-19-40-9-78-22-114-43l5-10 4 2 32 15 5 2-2-4-18-45c-1-4-3-7-6-9l-47-36-50-81-16 17-2 7 14 25 15 24-5 4-5-5-7-11-10-15-4-7-8 11c-2 3-2 6 1 10l10 16 6 8 31 41 22 25-2 3-5-4-21-23-21-28-12-17-5-7-4-7-5-9c-3 5-2 9 1 13l5 9 9 12 8 11 22 28 25 28-5 6m593-97 1-9h-2l-3 6-8 13-14 19-23 29-31 35v2l8-4 29-30 22-29a698 698 0 0 1 21-32M324 205l2-3 3-6c2-2 2-4 0-6l-7-6c-8-6-15-11-24-14l-3 10-3 9c8 5 15 9 22 15l6 5 4-4M184 482v-18l1-8c-6 4-9 8-8 14v60l2 57c0 5 2 9 8 10l-1-9-1-55-1-40v-11m701 3-1-11 1-1-1-3c1-6 0-11-7-13v78l-2 55v8c5-2 7-5 7-9l1-18 2-75v-11M290 257c-11-6-21-6-31 3-8 8-11 17-8 28 1 8 6 12 12 17l4-5-10-14c-2-12 1-19 13-26l16 1 9 5 3-4-8-5m521 30c2-11 0-19-9-27-8-8-22-9-32-3l-6 5c2 3 4 5 7 1 8-6 17-5 26 1 8 6 10 14 7 24l-6 8c-4 3-4 5 0 8 7-3 11-9 13-17m-51-38 11-6c16-5 31-2 43 11 9 10 12 23 9 37-3 10-9 19-19 25 4 2 3 8 8 6 3-2 5-1 7 0 2 2 4 3 7 1 2-3 3-5 1-8-3-4-2-6 0-10s5-3 9-3l4-2c1-2 0-5-1-7-8-7-7-11 2-16 2-2 3-3 2-7 0-4-3-4-6-4-4 0-6-2-7-6-2-4 1-5 3-7 3-3 3-5 1-8-3-3-5-3-8-2-3 2-5 1-8-1-4-3-3-6-3-9v-5c-4-4-7-4-11 0-3 4-6 5-10 3l-5-7c-1-4-2-5-6-4h-5v3c-3 11-8 13-17 7l-6-1c-4 2-5 5-3 9l1 7-3 3 6 6 4-5m95 394 2-4-10-15-5 8a393 393 0 0 1-16 24l-27 36c-3 3-4 6-2 11 1 5-2 10-6 13l-22 20-5 4 11 5 4-4 12-12 16-19 32-41 7-10 9-16m-665-92v5l1 38 2 6c4 3 9 5 15 7l-1-11V442l-14 8c-3 2-5 5-4 10v74l1 17m159-332 1-3-15-21-3 7-3 4c5 7 5 7 3 11l-5-8-2 1-1 4 11 15 14-10m365-4-3 3 16 11 10-15v-4l-6 5-2 1-1-3 6-7-5-6-2-5-13 20m20-16 2 4 3 3 2 2 29-19-4-11-2-8c-12 5-22 11-30 19-4 4-4 5 0 10m-427 30c-3-2-5-1-7 1-7 6-14 3-15-5-1-4-3-5-7-5-4-1-5 1-6 4-2 9-8 10-14 4-3-2-4-4-8-2s-5 4-4 8c2 8-3 12-10 9-4-1-6-1-8 3-3 4 0 6 2 8 4 5 2 10-4 11l-7 2c-2 5-1 8 4 11 6 2 6 9 1 13l-4 3c1 4 0 8 6 8 9 0 12 5 8 13-1 3-1 5 1 7 3 3 5 2 7 1l9-2 1 1 4-7c-10-6-14-15-18-25-3-17 2-31 16-42 10-8 22-8 35-6l19 11 5-5c-7-3-5-7-3-11s1-6-3-8m-119 82-4 2c-3 3-3 7 1 8 6 2 12 11 12 17 0 4 1 7 5 9l5-1 7-14h-1l-11-15-5-11-9 5m670 7-4 7c-8 6-7 12-1 19v1l4 2c5 0 8-4 7-8 0-6 6-16 12-18l4-3c0-2-2-4-3-5l-4-3-9-5c-1 5-3 9-6 13m25-40-1-13c-1-5 6-8 1-13l-7 2c-3 0-6 4-9 0v-2l8-3 6-1v-3l-1-1c-6-7-13-14-11-25 0-2-4-7-6-7-5 1-7-4-11-7-3-3-6-7-5-12 0-3-5-8-7-7-7 3-12-1-17-4l-3-4c-1-8-8-10-14-6l-5 2c-6-1-14 2-17-6l-2-1-13 2 2 10v1l4 8c1 4 0 6-4 7-17 7-29 19-38 34-2 3-2 5 2 6l3-5c22-32 58-38 89-13a76 76 0 0 1 30 77l-4 10c-6 14-15 26-28 34-3 1-5 3-1 6a75 75 0 0 0 39-76c0-3 1-4 4-4 3 12 2 24-1 37l6 4 6 4 2-7c1-2 2-6 4-7 6-5 6-11-1-17m-706 2c-6 5-5 11 1 15l3 5 2 8 7-4c5-1 5-4 5-9v-31c4 0 3 2 3 5l1 25c4 23 19 39 39 50 4-3 1-5-1-6a68 68 0 0 1-34-62c1-26 13-46 33-61 31-23 66-16 87 15l4 5c4-3 4-3 2-7-9-14-21-26-37-32-4-2-6-4-4-9l3-8 2-11c-7 0-13-6-18 4h-1c-7 1-14 5-20-1-4-3-12 0-13 5-1 6-10 12-16 11-6-2-10 2-10 8-1 2-1 5-3 7l-7 8-4 2c-7 0-9 4-8 10l-1 6-4 7-1 2-1 2-7 9 9 2c2 1 7 0 6 5l-1 1-9-3-7-2v6c5 8 2 15 0 23m640-12c-7-16-22-25-38-22-10 2-19 8-19 14 8-7 16-12 26-11 10 0 18 5 24 13 4 6 6 13 6 20 0 12-6 20-15 28l6-2c12-11 15-24 10-40m-560-12c16-11 30-9 45 3l-2-4c-8-8-18-11-29-9-13 2-25 13-28 27s2 29 13 36l3 1-1-3c-17-14-17-36-1-51m-42 85-3 5-1 4 17 16 8-16-16-11c-2-2-3-1-5 2m623 22 12-13v-2l-7-11-17 13 5 11c1 4 3 4 7 2m-570-95c-6 7-7 17 0 22 2 2 4 4 6 0-6-7-7-11-4-17 4-4 9-5 16-1l4-1c-6-8-13-9-22-3m525 15-6 9 6-2c6-4 7-14 2-20-6-7-15-8-21-2l-2 3h4c10-5 17 0 17 12z"/><path fill="#0B0E1F" d="m717 730 1-7c2-3 3-6-1-8 1-10 6-15 14-20 13-9 25-19 37-30l21-28 31-53c2-3 4-6 8-4l16 14 2-3 8 1v14h3l7-3c-2 4 3 5 4 8l-11 6-12-7-1-3c-4-9-11-14-18-21-16 29-32 58-53 84l-43 34c-3 2-5 6-7 9l-6 17z"/><path fill="#090C1F" d="m317 742-5 10c-6-5-12-3-18 1l-13 4c-5 1-10-1-14-5l5-7c4 3 6 4 10 2l-5-5-2-3 2-3 6 5c4 5 8 4 14-1l-6-5-20-19c-4-3-7-7-6-13 2-4 1-7-1-10l-23-30 5-4 10 13 10 13 12-18 3 2-1 2-9 15v5c4 3 3 7 3 12-1 2 0 5 2 7l5 5 25 20 11 7z"/><path fill="#FBFDFD" d="M216 547v-14l9-18 14-15 13-23c12-21 25-42 44-59 17-17 33-35 53-48 3-2 5-4 9-2 4 1 7-1 8-6 1-4-2-7-6-8s-7 2-8 6l-4 6c-9 7-18 13-26 21l-41 40-10 12-33 53c-3 6-8 10-12 15v-3a1176 1176 0 0 1 3-16l16-35c3-8 7-15 13-21l78-79c8-8 16-12 27-10 4 0 8-1 12 4 2 3 6 1 9-1 3-3 3-8-1-11-3-2-7-3-9 0-3 4-7 4-11 4h-14l-6 3a16383 16383 0 0 0-97 99l-16 34 6-32 4-25a377 377 0 0 1 69-118l4 4c3 3 6 5 4 11-1 5 4 9 9 7l6-3 34-23c3-2 5-4 9-1 4 2 8-1 9-5s-1-8-5-9-7 1-9 5l-4 5-30 21-4 3-5-6c-8-1-11-7-15-12 15-17 33-32 51-46 3-2 5-1 7 0 4 3 7 2 10 0l23-16 30 53v37c0 4 1 7 4 9l45 45 4 7v30c0 3 2 5 3 7l13 11 2 5-1 42-16 12v-36c0-3-1-7-3-9-5-5-6-12-5-19v-15c1-11-1-21-11-27l-2-2c-2-3-6-4-9-4-3 1-6 0-8-3s-7-3-10 0-3 8 0 10c3 3 7 3 10 0 5-4 10-4 15 0l8 8c1 2 3 5 3 8v33c0 3 2 6 4 9 2 4 4 8 4 13v46l-8 4c3-13 3-26 3-38 0-16-5-31-15-44-2-4-6-7-10-12l-1 7a61 61 0 0 0-67-19c-22 6-38 21-52 38l-52 61c-6 8-10 16-12 25-3 16 0 31 5 46 16 45 71 65 106 41 1 6-2 10-5 13a71 71 0 0 1-71 18l-31-8-16-26-16-28c-1-3-3-4-7-3l-3-19-5 5h-2l5-30-1-1-6 6-6 6m71 65c-10-12-21-23-24-40l-3-10c-1-3-2-6 1-9 2-3 1-8-3-10-3-2-7-1-9 3-2 3-1 8 2 9 4 2 5 4 6 8l5 18 7 15 17 21c2 2 4 5 3 9-1 3 2 7 6 7 4 1 7-1 8-5s-2-8-5-8c-5 0-8-4-11-8m-5-238c5-1 8-3 8-7 1-3-1-6-5-7s-7 1-8 4c-1 4 0 8 5 10zM828 580c-4-2-6 1-8 4l-32 53-39 9c-8 2-17 2-24 1-13-3-24-9-34-17-6-4-10-10-11-17 11 7 23 12 36 11 33 0 60-19 72-50 6-16 9-31 5-48-3-13-11-22-20-32l-35-42c-9-10-17-20-27-29a78 78 0 0 0-44-22c-23-4-43 3-58 21l-1-4c-7 5-15 15-19 28-7 21-6 42-2 64l-7-5v-47c0-4 1-8 4-11s4-7 4-11a820 820 0 0 1 2-39l10-10c4-3 10-3 13 1 3 3 8 3 11 0 3-2 3-8 0-10-4-3-8-2-11 1l-4 2c-6-1-10 2-14 6l-8 8-3 7v33c0 4-1 7-4 10s-4 7-4 12v37l-17-14v-23c0-7-2-15 1-20 2-6 9-9 14-14 2-2 3-4 3-7v-28c0-5 2-8 5-12l45-43c1-1 3-3 3-5l-1-41 30-52 23 16c3 2 6 3 10 0 2-2 5-1 7 1 18 13 36 28 51 45l-20 18-33-23c-2-2-5-3-5-7-1-4-6-5-9-4-4 1-6 5-5 9s6 6 9 4c4-2 7 0 10 2l36 25c3 2 6 3 9 1 3-3 4-6 3-10l2-5 6-6c21 23 38 49 52 77l17 41 1 7 7 34 1 13-8-16c-4-9-7-18-13-24-26-28-54-54-81-82-9-10-19-14-32-12-3 1-6 0-8-3-3-4-7-3-10 0-3 2-3 6-1 10 3 3 8 4 10 0 3-4 7-3 11-3h10c4-1 7 1 9 3l88 87 6 8 21 49 1 16-8-10-17-29c-7-11-12-23-21-33-23-24-46-50-74-68-2-1-3-3-3-5-1-5-4-8-9-7-4 1-6 5-6 8 1 5 5 7 10 6 2-1 4 0 5 1 8 5 17 11 24 18l50 49 3 4 29 49c5 8 9 15 16 21l3 5 1 1 9 19-1 12-12-13-1 1 6 31h-2l-5-4-3 18m-26-19-7 24-4 9-19 21c-1 2-4 3-6 4-4 1-7 4-7 8 1 4 5 7 9 6 4 0 6-3 6-8-1-2 0-5 1-7l18-21 5-10 8-26 4-5c4-2 6-6 3-10-2-4-6-5-10-3-3 3-4 7-2 11l1 7m-26-188c6 1 11-2 9-7 0-2-3-5-5-6-2 0-6 2-7 4-2 4-1 7 3 9z"/><path fill="#FAFDFD" d="M437 288c-1-2-1-5-3-7-14-23-25-46-35-72l-1-6c89-37 177-38 267 1l-9 21-28 57-2 6v19l-2 2c-3-5-7-6-10-4s-4 7-1 10c4 6 4 9-1 14l-43 40c-4 4-5 7-5 13v30l-2 5h-2v-44c0-3 2-7 4-9l31-29c6-5 9-11 8-19l2-7c3-3 4-7 1-10-2-4-7-4-10-1s-3 8 0 11c5 4 4 15 0 20l-35 33c-3 3-4 6-4 10v43c0 5-1 8-5 11-3 2-4 5-4 9a999 999 0 0 1-3 38v-43c0-4 0-7 3-9 3-3 3-8-1-10-3-3-6-3-9 0s-3 8 0 10 3 4 3 7v44c-7-3-13-2-20-1v-43l3-6c3-3 4-7 1-10-2-3-7-4-10-1s-3 7 0 10l3 4a2451 2451 0 0 1-3 54v-45c0-4-1-6-4-9-4-2-5-6-5-11v-44c0-2-1-5-3-7l-36-34c-4-5-5-16 0-21 2-3 3-7 0-10-3-2-6-3-10 0-3 2-4 7-1 10 5 3 4 7 4 12-1 5 1 8 5 12l34 32c2 2 4 5 3 8v45h-2l-1-5v-33c0-3-2-6-4-8l-44-42c-4-4-5-10-2-13 3-4 3-8 0-10-3-3-6-2-10 2h-2v-20m43-70v-4l-1-22-1-3-2 3v56c0 7 1 11 6 15 4 3 5 7 5 12v23c-1 9 2 16 9 22 3 2 7 5 7 9 1 4 6 5 10 4 3-1 5-6 4-9-2-4-6-6-9-4-4 2-6 0-8-2l-6-5c-3-3-4-5-4-9l1-29c0-6-2-11-7-15-3-2-5-6-4-11v-31m103-18v48c0 5-1 10-5 13-5 4-6 8-6 14l1 20c1 10-2 18-11 24-2 1-3 2-6 1-4-2-8 0-10 4-1 4 2 8 6 9s7-1 9-6l2-4 10-9 3-8v-29c0-6 1-11 6-15 4-3 5-7 5-12v-58l-2-2-2 2v8m30 59 1-5v-36c0-2 1-4 3-5 3-4 4-8 0-11-2-3-7-3-10-1-3 3-3 8 1 12l2 5v35c0 3-2 6-3 8l-21 20-3 6v21l2 5h1l1-5v-18c0-3 2-6 3-8l23-23m-155-51c1-4-1-8-6-8-2 0-6 2-7 4-2 3-1 7 2 9a907 907 0 0 1 2 40c0 5 2 8 5 11l18 18c3 2 4 5 4 8v18l1 5h2l1-5-1-19c0-3-1-6-3-8l-20-20c-1-2-3-5-3-8v-26c0-6-1-13 5-19m37 2v-19l-2-4-2 4v60l1 4c4 3 4 8 3 12v12l3 4 1-4v-17l-2-6-2-7v-39m77 15v-16l-1-19-2-3-1 3v54c0 5 1 10-3 13l-1 4v19l1 3h1l1-4v-16l2-6 3-7v-25m-17-20v-16l-2-4-2 4v31c0 3-1 5-3 7-2 4-2 8 1 11 3 2 7 2 10-1 3-2 3-7 0-10-4-2-4-5-4-9v-13m-45-20-2 4v30c0 3-1 6-3 7-4 3-4 8-1 11 2 3 7 3 9 1 4-3 4-7 1-11-2-2-3-4-3-7l1-31-2-4z"/><path fill="#B1C5CC" d="m768 666-37 29c-8 5-13 10-15 20a548 548 0 0 1-9 22l-23 11-8 1c-3-2-6-2-9 0-7 4-13 9-20 12l-23 12 2-7c-10 10-18 21-31 27l-1-1 1-6-1-1c-6 8-12 16-22 20l-3-8c-12 6-25 12-38 12-14 0-26-5-38-11l-3 7c-10-4-16-12-23-20l-1 1 1 8c-13-7-22-18-32-28l2 7-7-3-35-21c-4-2-7-3-10-1s-5 1-7 0l-24-12-10-27c-1-4-4-8-8-10l-41-32 2-4 21 5c3 1 6 1 6-4h19l-1 7c-2 3-1 5 4 5l3 2c3 5 7 7 12 3l7 11 7-7 8 13 7-15c2 5 1 10 7 10l4-3c3-3 5-4 8 0l5 8c19 23 42 34 72 26l14-2h55c6 0 12 0 17 2 16 4 31 4 46-2 15-7 25-17 34-30 5-6 5-6 10-1l4 2 8-4 5 9 8-13 6 7 7-11c5 4 9 3 12-3l5-2c4 0 5-2 3-5l-2-7 21 2 4 3 24-7 1 4M551 774l4-2v6l17-13 1 6 2 1 12-18 2 9h1l11-18 2 7 3-9c-50-14-100-16-150 0l3 7 3-4 9 17h2l2-9c4 7 7 14 14 18v-7l17 13v-6l4 2c13 8 27 9 41 0z"/><path fill="#C9D7DB" d="m296 663-1 4-7-7-15-23 31 8c27 7 50 0 71-18 3-3 6-7 5-13l21-20 6 3-13 30c-4 8-6 16-9 25h1l10-8 1 1-5 20 8-3c8-2 10-1 13 7l2 3-2 3c-11 2-16 7-16 18-6 0-5-5-7-10l-7 15-8-13-7 7-7-11c-5 4-9 2-12-3l-3-2c-5 0-6-2-4-5l1-7h-20l-24-5h-3v4z"/><path fill="#CBD9DD" d="m239 419-3 24-6 32a296 296 0 0 1-14 23v-55l2-3 7-24 22-58c7-17 18-34 30-49 5-8 11-16 18-23l10 11c-30 34-51 73-68 115-2 5-2 5 2 7z"/><path fill="#CAD7DC" d="m831 473-1-13-7-34-1-7c3 2 3 0 4-2l-1-3c-16-43-38-82-68-117l11-11 18 24c19 26 34 55 44 85l13 42 3 5v56c-7-7-12-16-15-25z"/><path fill="#6E7F89" d="M194 255h1l2-5 7-12c2 3 4 2 6 0l4-7c3-3 3-6-1-8l-1-2 14-15c18-14 38-21 61-19-1 5 1 7 5 9 16 6 28 18 37 32 2 4 2 4-2 7l-4-5c-21-31-56-38-87-15a76 76 0 0 0-33 61c-1 26 11 47 34 62 2 1 5 3 1 6-20-11-35-27-39-50l-1-25c0-3 1-5-4-5v-9z"/><path fill="#70808B" d="M857 290c4-30-6-55-30-73-31-25-67-19-89 13l-3 5c-4-1-4-3-2-6 9-15 21-27 38-34 4-1 5-3 4-7 32-3 56 10 75 33-5 6-5 6-1 12l2 4c2 4 4 4 7 0l6 11 3 5v10c-3 1-4 2-4 5 2 13 0 25-4 37l-5-1 3-11 3-1-3-2z"/><path fill="#6A7F8B" d="m754 735-45 24a1214 1214 0 0 1 23-50l37-29 12-9 10 15c1 1 0 4-1 5-2 3-3 6-2 10 2 5 0 8-5 11l-9-5c0-5 0-8-4-10s-6 0-9 2l-18 16c-6 5-5 10 1 14 3 3 7 5 10 6z"/><path fill="#6A7D88" d="m317 742-11-8h2c6 2 10 0 12-6 4-4 4-9 0-13l-21-16c-4-4-7-3-11 0l-5 5-2 11-5-5c-2-2-3-5-2-7 0-5 1-9-3-12v-5l10-15 44 33c5 4 10 8 12 15l2 8 14 32-32-15-4-2z"/><path fill="#B0C3CB" d="m844 607 1 3c-14 26-30 51-49 75l-12-19 2-4 30-48 12-20 2 1 14 12m-31 26c-1 3-3 6 1 8l5-4v-7l-6 3z"/><path fill="#B1C2C9" d="m278 667-12 18-10-13-10-13-15-24-13-25 16-16 3 5 26 43 15 25m-28-30-3-6-4-1-2 4 6 7 3-4z"/><path fill="#CBD9DD" d="m399 232-22 15h-5c-5-3-8-2-12 1-19 13-36 28-52 45l-11-11 11-11c17-17 37-32 58-45l24-14 9 20m-10-8-15 9v5l5 1 11-8c3-2 3-4-1-7zM753 293c-16-17-34-33-53-47-3-2-6-2-9 0s-5 2-8 0l-18-13c-2-9 5-13 7-21l10 6a300 300 0 0 1 83 64l-12 11m-70-63-8-5c-1-1-4 0-5 1l1 5 13 8h4v-5l-5-4z"/><path fill="#C7D3D6" d="m867 253-3-5-6-11-2-4c-2-3-5-5-2-9 1-2-2-4-4-3a85 85 0 0 0-75-34l-3-7c12-3 24-3 35 1 25 9 45 25 58 48 4 6 6 14 9 20l-7 4zM203 238l-6 12-2 5c0-5-5-4-8-6l2-9c9-15 18-28 31-39 10-10 22-16 35-20 12-4 24-4 35-2l-3 8c-23-2-43 5-61 19l-14 15-4 3c4 2 1 3 0 5l-5 9z"/><path fill="#B2C6CE" d="m441 779 5 7-33-7-42-14c-3-1-5-3-7-6l-7-16 20 9c3 2 6 3 9 1s5-2 8 0l23 14 24 12zM705 742v1c-8 21-8 21-30 28l-58 16-1-2 5-6 1-1c3-1 6-1 8-3l36-20c4-3 7-4 12-2h6l21-11z"/><path fill="#C7D3D6" d="m221 294 3-3c5-4 5-11-1-13-5-3-6-6-3-11 4 0 8 2 10 0 3-2 4-6 6-10l-3-4-2-3-1-3 4-1 3 1c5 4 8-2 12-4 3-2 2-5 1-8v-6c2 1 5 1 6 3 3 3 6 3 10 2 5-1 9-2 9-8l3-3 2 1c1 7 6 10 11 13l-3 5c-12-2-24-2-34 6a42 42 0 0 0-16 43l-13 3h-4z"/><path fill="#C4D1D5" d="M843 271c1 3 0 4-2 6-9 5-10 9-2 16l-16-2c3-14 0-27-9-37a39 39 0 0 0-44-11l-2-6c6-2 12-3 12-11l4-2 3 3c1 2 2 5 4 6 6 2 11 5 16-2l1-2c3 0 4 0 4 3l-1 3c-1 8 6 15 14 13h5l-1 5-3 6c2 8 4 10 12 11l5 1z"/><path fill="#F6F6F5" d="M874 249c-3-6-5-14-9-20-13-23-33-39-58-48-11-4-23-4-35-2h-1l-2-10 13-2 2 1c3 8 11 5 17 6l5-2c6-4 13-2 14 6l3 4c5 3 10 7 17 4 2-1 7 4 7 7-1 5 2 9 5 12 4 3 6 8 11 7 2 0 6 5 6 7-2 11 5 18 11 25l1 2-1 2-6 1z"/><path fill="#23E0EB" d="M226 507c4-5 9-9 12-15l33-53 10-12 41-40c8-8 17-14 26-21l4-6c1-4 4-7 8-6s7 4 6 8c-1 5-4 7-8 6-4-2-6 0-9 2-20 13-36 31-53 48-19 17-32 38-44 59l-13 23-14 15-9 9v-6l10-11m136-147c-2-3-4-3-6 0l2 4c3 2 4 0 4-4z"/><path fill="#F6F6F5" d="M291 179c-12-2-24-2-36 2-13 4-25 10-35 20-13 11-22 24-31 39l-2-1 1-2 1-2 3-7 1-6c-1-6 1-10 8-10l4-2 7-8c2-2 2-5 3-7 0-6 4-10 10-8 6 1 15-5 16-11 1-5 9-8 13-5 6 6 13 2 20 1h1c5-10 11-4 18-4l-2 11z"/><path fill="#28DEE9" d="M626 307v-18l3-2a1315 1315 0 0 1-2 46l-45 43c-3 4-5 7-5 12v28c0 3-1 5-3 7-5 5-12 8-14 14-3 5-1 13-1 20v24l-1 19-3-1v-55c0-7 1-12 7-16l9-8 3-6v-29l3-9a4046 4046 0 0 0 49-50v-19zM437 288v35c0 4 1 7 4 10l40 39c6 5 9 11 8 19v16c-1 8 1 14 9 19l6 5c3 3 4 5 4 9v59h-4v-60l-2-5-13-11c-1-2-3-4-3-7v-30l-4-7-45-45c-3-2-4-5-4-9v-36l4-1z"/><path fill="#C5CFD2" d="m241 663 23 30c2 3 3 6 1 10l-10 7-31-40c4-5 6-11 12-12l5 5m1 20c5-3 3-6 1-8-1-1-5-2-6-1-2 3 0 6 3 8l2 1zM797 702c-2-4-1-7 2-10l28-36 11 14-32 40-9-8m28-28c-4-2-6 0-7 3-1 1 0 5 1 5 4 1 6-1 7-5l-1-3z"/><path fill="#F0F3F4" d="m294 286-17 23c-12 15-23 32-30 49l-22 58-7 24-2 3c-3-10 1-19 4-28a357 357 0 0 1 71-132l3 3zM846 442l-3-5-13-42c-10-30-25-59-44-85l-18-24 2-3a353 353 0 0 1 76 149v10z"/><path fill="#F2F4F5" d="m399 232-9-20-24 14a296 296 0 0 0-69 56l-3-2c16-20 34-36 55-50l43-25 10 24-3 3z"/><path fill="#F6F6F5" d="m765 282-17-16c-20-19-42-35-66-48l-10-6c-2 8-9 12-7 21l-5-2 9-26c38 19 72 42 98 75l-2 2z"/><path fill="#C4D1D5" d="m873 490-1 43-17-2v-15l1-31 6 1 11 4m-9 25c4 0 5-2 4-5 0-2-2-4-4-4-1-1-3 2-4 3-1 3 0 5 4 6z"/><path fill="#C7D3D6" d="M206 486v45l-17 2v-43l17-4m-10 29c5 0 7-2 6-5 0-2-2-4-3-5-2 0-5 2-5 3-1 2 1 4 2 7z"/><path fill="#C9D7DB" d="m193 256 1 8 1 31c0 5 0 8-5 9l-7 4-2-8-3-5c-6-4-7-10-1-15l4-2 4-24 8 2z"/><path fill="#C7D3D6" d="M867 263v-9c3 4 6 0 10 0l3 22 3 3c7 5 7 11 1 16-2 1-3 5-4 7l-2 7-6-4-6-4c3-13 4-25 1-38z"/><path fill="#70808B" d="M207 556v41l-16-4-1-38 17 1z"/><path fill="#BDCDD2" d="m216 547 6-6 6-6 1 1-5 30h2l5-5 3 19-17 15-1-13v-35z"/><path fill="#70808B" d="M854 598a167 167 0 0 0 0-13l2-29h15l-1 36-16 6z"/><path fill="#F2F4F5" d="m278 667-15-25-26-43-3-5-16 16 1-7 16-17 50 81-4 2-3-2z"/><path fill="#F0F3F4" d="m844 607-14-12-2-1-12 20-30 48-2 4-4 3-6 1c20-26 36-55 52-84 7 7 14 12 18 21z"/><path fill="#B8C3C8" d="m877 534 1-40 7 3-2 74-1 18c0 4-2 7-7 9l1-8c1-4 4-6 4-9l2-47h-5z"/><path fill="#E9EEEF" d="m843 271-5-1c-8-1-10-3-12-11l3-6 1-5h-5c-8 2-15-5-14-13l1-3c0-3-1-3-4-3l-1 2c-5 7-10 4-16 2-2-1-3-4-4-6l-3-3-4 2c0 8-6 9-12 11l-12-8 5 1c9 6 14 4 17-7v-3h5c4-1 5 0 6 4l5 7c4 2 7 1 10-3 4-4 7-4 11 0v5c0 3-1 6 3 9 3 2 5 3 8 1 3-1 5-1 8 2 2 3 2 5-1 8-2 2-5 3-3 7 1 4 3 6 7 6 3 0 6 0 6 5z"/><path fill="#BACAD0" d="m281 669 4-2 47 36c3 2 5 5 6 9l18 45 2 4-5-2-14-32-2-8c-2-7-7-11-12-15l-44-33v-2z"/><path fill="#23E0EB" d="m753 300-6 7-2 5c1 4 0 7-3 10-3 2-6 1-9-1l-36-25c-3-2-6-4-10-2-3 2-8 0-9-4s1-8 5-9c3-1 8 0 9 4 0 4 3 5 5 7l33 23 20-17 3 2m-70-10 5-1-1-4h-3l-1 5m53 28 5-1v-4l-4-1-1 6zM311 297c5 5 8 11 16 12l5 6 4-3 30-21 4-5c2-4 5-6 9-5s6 5 5 9-5 7-9 5c-4-3-6-1-9 1a4314 4314 0 0 1-40 26c-5 2-10-2-9-7 2-6-1-8-4-11l-4-4 2-3m10 16 1 5h4l1-3-6-2m58-28-4 1v4l4 1v-6z"/><path fill="#6F7D87" d="m873 311 4 2c1 1 3 3 3 5l-4 3c-6 2-12 12-12 18 1 4-2 8-7 8l-4-2v-1c-6-7-7-13 1-19l5-7 14-7z"/><path fill="#70808B" d="m823 291 16 2c1 2 2 5 1 7l-4 2c-4 0-7-1-9 3s-3 6 0 10c2 3 1 5-1 8-3 2-5 1-7-1-2-1-4-2-7 0-5 2-4-4-8-6 10-6 16-15 19-25z"/><path fill="#738690" d="m202 318 11 14h1l-7 14-5 1c-4-2-5-5-5-9 0-6-6-15-12-17-4-1-4-5-1-8l4-2c4 5 9 6 14 7z"/><path fill="#B4C6CD" d="m773 670 7-1 1 2-12 9-37 29-5 5-18 44-5 4 13-32 6-17c2-3 4-7 7-9l43-34z"/><path fill="#738690" d="M220 294h5l13-3c4 9 8 18 18 24l-4 7-1-1-9 2c-2 1-4 2-7-1-2-2-2-4-1-7 4-8 1-13-8-13-6 0-5-4-6-8z"/><path fill="#BEC9CE" d="m186 589 1 8c-6-1-8-5-8-10l-2-57v-33l7-3v39c-3 1-4 2-4 5l2 46c0 2 3 3 4 5z"/><path fill="#E9EEEF" d="M291 237c-5-3-10-6-11-13l-2-1-3 3c0 6-4 7-9 8-4 1-7 1-10-2-1-2-4-2-6-3v6c1 3 2 6-1 8-4 2-7 8-12 4l-3-1-4 1 1 3 2 3 3 4c-2 4-3 8-6 10-2 2-6 0-10 0l6-2c6-1 8-6 4-11-2-2-5-4-2-8 2-4 4-4 8-3 7 3 12-1 10-9-1-4 0-6 4-8s5 0 8 2c6 6 12 5 14-4 1-3 2-5 6-4 4 0 6 1 7 5 1 8 8 11 15 5 2-2 4-3 6 0l-5 3c-2 4-5 5-10 4z"/><path fill="#15C3CE" d="M817 269c5 15 2 28-10 39l-6 2c9-8 15-16 15-28a32 32 0 0 0-30-33c-10-1-18 4-26 11 0-6 9-12 19-14 16-3 31 6 38 23z"/><path fill="#21D7E3" d="m706 742-22 11h-6c-5-2-8-1-12 2l-36 20c-2 2-5 2-8 3l2-5 23-12c7-3 13-8 20-12 3-2 6-2 9 0l8-1 23-11-1 5z"/><path fill="#15C3CE" d="M257 257c-16 14-16 36 1 50l1 3-3-1c-11-7-16-22-13-36s15-25 28-27c11-2 21 1 29 9l2 4c-15-12-29-14-45-2z"/><path fill="#21D7E3" d="m441 779-24-12-23-14c-3-2-5-2-8 0s-6 1-9-1l-20-10-3-6 24 12c2 1 4 2 7 0s6-1 10 1l35 21 7 3 4 6z"/><path fill="#C5CFD2" d="m736 202-2-3c9-10 19-17 32-20l4 10-29 19-2-3 10-8 1-3h-4l-10 8m20-13 5 1-1-4-4 3z"/><path fill="#6F7D87" d="m255 711 9-8c0 6 3 10 7 13l20 19-8 6-6-5-22-25z"/><path fill="#6A7D88" d="m797 702 9 8a401 401 0 0 1-28 31l-8-5 21-20c4-3 7-8 6-14z"/><path fill="#CBD9DD" d="m873 459-1 20-17-6v-4l1-18 17 8z"/><path fill="#70808B" d="M215 340c2-2 3-3 5-1l16 11-8 16-17-16 1-4 3-6z"/><path fill="#6F7D87" d="M838 363c-4 2-6 2-7-2l-5-11 17-13 7 11v2l-12 13z"/><path fill="#698894" d="M755 735c-4-1-8-3-11-6l5-1 25-21 9 5-28 23z"/><path fill="#CAD7DC" d="M189 478v-19l7-2 10-5v20l-17 6z"/><path fill="#C5CFD2" d="m329 197-4 5-6-6-7-3 4 8-2 2-22-14 4-10c5 2 10 3 14 6 7 3 13 8 19 12m-29-8 5 1-1-4c-2-1-4 0-4 3z"/><path fill="#808E97" d="m729 201 5 5-6 7 1 3 2-1 6-5v4l-10 15-16-11 3-4 5-3 10-10zM348 219l-13 10-11-15 1-4 2-1 5 8c2-4 2-4-3-11l3-4 16 17z"/><path fill="#6E7F89" d="m189 533 17-1v18h-16l-1-17z"/><path fill="#C7D3D6" d="m219 632 9 15-10 14-10-16 11-13zM834 646l9-14 4 4 8 8-10 15-11-13z"/><path fill="#70808B" d="m855 532 17 1-1 17h-16v-18z"/><path fill="#BEC9CE" d="M291 237c5 1 8 0 10-4l6-3c4 1 5 3 3 7s-4 8 3 11l-5 5-20-11 3-5z"/><path fill="#F2F4F5" d="M766 179c-13 3-23 10-32 19-4-4-4-5 0-9 8-8 18-14 30-19l2 9z"/><path fill="#677580" d="m853 304 6 1c-6 18-19 30-35 39-4-3-2-5 1-6 13-8 22-20 28-34z"/><path fill="#F6F6F5" d="M329 197c-6-4-12-9-19-12-4-3-9-4-14-6l2-9c9 3 16 8 24 14l7 6c2 2 2 4 0 7z"/><path fill="#6F7D87" d="M186 589c-1-2-4-3-4-5l-2-46c0-3 1-4 4-4l2 55z"/><path fill="#95A0A9" d="m816 715-28 30-8 4v-2l32-35 4 3z"/><path fill="#70808B" d="M877 534h5l-2 47c0 3-3 5-4 8l1-55z"/><path fill="#FBFDFD" d="m189 478 17-6v13l-17 5v-12z"/><path fill="#0B0E1F" d="m855 451-1 18-8 3v-26l9-1v6z"/><path fill="#6A7D88" d="M269 268c8-6 15-5 21 3l-4 1c-7-4-12-3-16 1-3 6-2 10 4 17-2 4-4 2-6 0-7-5-6-15 1-22z"/><path fill="#B4C6CD" d="m756 229 12 8 2 6-11 6-5-4-2-7c-2-4-1-7 4-9z"/><path fill="#BEC9CE" d="m816 715-4-3 23-29 4 3-23 29z"/><path fill="#F6F6F5" d="m833 646 12 13-7 10-11-13 6-10z"/><path fill="#6F7D87" d="M793 282c0-11-7-16-17-11h-4l2-3c6-6 15-5 21 2 5 6 4 16-2 20l-6 2 6-10z"/><path fill="#FCFDFD" d="m855 473 17 6 1 11-11-4-7-1v-12z"/><path fill="#C5CFD2" d="m247 716-22-27 3-5 21 28-1 2-1 2z"/><path fill="#F6F6F5" d="m218 662 11-15 7 11c-6 1-8 7-12 11l-6-7z"/><path fill="#CBD9DD" d="M797 263c-9-5-18-6-27 0l1-6c9-6 23-5 31 3 0 5-3 2-5 3m-24-3s0-1 0 0z"/><path fill="#C4D1D5" d="M269 260c-11 7-14 14-13 26l-5 1c-3-10 0-19 8-27l6 1 4-1zM797 263c2-1 5 2 5-2 9 7 11 15 9 27h-7c3-10 1-18-7-25z"/><path fill="#CBD9DD" d="m270 260-5 1-5-1c9-9 19-9 31-3v3a1831903 1831903 0 0 1-21 0z"/><path fill="#BCD7DB" d="m226 507-10 11v-14a235 235 0 0 1 11-13l-1 13v3z"/><path fill="#E9EEEF" d="m839 686-4-3 13-20 5 2-14 21z"/><path fill="#B1C2C9" d="m247 717 1-3 23 27c2 2 4 2 6 1l5 5c-4 2-6 1-9-2l-26-28z"/><path fill="#F2F4F5" d="M206 452a139 139 0 0 1-17 7c-1-4 1-7 4-9l14-8-1 10z"/><path fill="#B8C3C8" d="m854 599 16-7c1 5 0 9-6 11l-8 3h-2v-7z"/><path fill="#6E7F89" d="m251 288 5-1 11 13-4 5c-6-5-11-9-12-17z"/><path fill="#BEC9CE" d="m191 594 15 3 2 10c-6-2-11-4-15-7l-2-6z"/><path fill="#CBD9DD" d="M884 474v12l-6-4v-17l6 6v3z"/><path fill="#F6F6F5" d="m856 451-1-6 1-1h1l13 8 3 7-17-8z"/><path fill="#6A7D88" d="M804 288h6c-1 7-5 13-12 16-4-3-4-5 0-8l6-8z"/><path fill="#C7D3D6" d="M184 465v18l-7 2 1-15 6-5z"/><path fill="#E9EEEF" d="m185 254-4 24-3 2c1-8 4-15-1-23v-6l8 3z"/><path fill="#F2F4F5" d="m219 632-11 13c-3-3-3-6-1-9l8-11 4 7zM855 644l-8-8-4-4 4-8 10 15-2 5z"/><path fill="#E9EEEF" d="m883 278-3-2-3-22 6-2c5 5-2 8-1 13l1 13zM348 219l-15-17c0-2 0-4 2-7l15 21-2 3z"/><path fill="#B4C6CD" d="M855 550h16l1 5-17 1v-6z"/><path fill="#808E97" d="M277 742c-2 1-4 1-6-1l-23-27 1-2 21 23 5 4 2 3z"/><path fill="#F0F3F4" d="m228 684-3 4-8-10v-5l-1-6 12 17z"/><path fill="#BACAD0" d="M190 550h16l1 5h-17v-5z"/><path fill="#C5CFD2" d="m873 311-14 7 5-13 9 6z"/><path fill="#FCFDFD" d="M877 483c3 0 5 2 7 3l1 10-7-2-1-11z"/><path fill="#C5CFD2" d="M202 318c-5-1-10-2-13-7l8-5 5 12z"/><path fill="#21D7E3" d="m765 282 3-2 2 3-2 3-11 11-3-3 11-12z"/><path fill="#23E0EB" d="m294 280 3 2 11 11-3 4-10-11-3-3 2-3z"/><path fill="#6F7D87" d="m316 201-4-8 7 3 6 6-2 3-7-4z"/><path fill="#FCFDFD" d="m177 485 7-2v11l-7 3v-12z"/><path fill="#E9EEEF" d="m729 201-10 10-5 3 13-19 2 6z"/><path fill="#B8C3C8" d="m770 736 8 5-3 4-11-5 6-4z"/><path fill="#BEC9CE" d="m853 665-4-2 7-12 3 3-6 11z"/><path fill="#C9D7DB" d="m216 524 9-9-8 18-1-9z"/><path fill="#677580" d="m736 202 10-8h4l-1 3-10 8-3-3z"/><path fill="#CBD9DD" d="m216 667 1 6v5l-8-13 2-5 5 7z"/><path fill="#E9EEEF" d="M203 657c-3-4-4-8-1-13l5 10-4 3zM186 239l3 1-2 9-8-1 7-9z"/><path fill="#F0F3F4" d="m884 471-6-6-1-8c7 2 8 7 7 14zM184 465l-6 4c-2-5 1-9 7-13l-1 9z"/><path fill="#BEC9CE" d="m203 657 4-3 4 6-2 5-6-8zM286 261l5-1v-3l7 5-3 4-9-5z"/><path fill="#95A0A9" d="m753 245 6 4-3 5-6-6 3-3z"/><path fill="#B8C3C8" d="m316 201 7 4-3 4-6-6 2-2z"/><path fill="#E9EEEF" d="m860 654-4-3 3-6h2l-1 9z"/><path fill="#26DDE7" d="m223 496-6 7-1-4 4-4 3 1z"/><path fill="#BDCDD2" d="m771 257-1 6c-2 4-4 2-6-1l7-5z"/><path fill="#677580" d="m857 290 3 2-3 1v-3z"/><path fill="#E9EEEF" d="m189 235-1 2 1-2zM880 248l1-2-1 2z"/><path fill="#CBD9DD" d="M857 444h-1 1z"/><path fill="#F0F3F4" d="M884 474v-1 1z"/><path fill="#B1C5CC" d="M595 793h-1 1z"/><path fill="#21D7E3" d="m622 778-1 1 1-1zM707 737l1-1-1 1z"/><path fill="#C9D7DB" d="m768 665-1-3c-1-4-4-3-6-2l-22 5-21-1 2 7c2 3 1 5-3 5l-5 2c-3 6-7 7-12 3l-7 11-6-7-8 13-5-9-9 4c0-12-7-18-19-18l-1-1 4-6c2-2 4-6 6-6l15 1-5-18 1-1 10 10c-2-13-6-23-11-34l-8-19 6-5 17 17c1 7 5 13 11 17 10 8 21 14 34 17 7 1 16 1 24-1l39-9-20 28z"/><path fill="#BDCDD2" d="m828 580 3-18 5 4h2l-6-31 1-1a3031 3031 0 0 0 13 16v22a1916 1916 0 0 0-2 22l-16-14z"/><path fill="#0C0E22" d="M846 591c-1-6 0-12 1-19 6-2 6-1 6 4l1 9v7l-8-1z"/><path fill="#70808B" d="M854 606h2-2z"/><path fill="#698894" d="m281 715 2-11 5-5c-2 6 0 10 4 13l18 14c3 2 7 2 10 3-2 5-6 7-12 5h-2l-25-19z"/><path fill="#B1C2C9" d="m283 741 8-6 6 5c-6 5-10 6-14 1z"/><path fill="#080C1F" d="m401 594-21 20c-35 24-90 4-106-41-5-15-8-30-5-46 2-9 6-17 12-25l52-61c14-17 30-32 52-38 25-8 51-1 67 19 7 10 10 21 10 32 0 24-4 47-14 69v4l3 3 1-5 9-6 3 4-9 7-10 7c-3-6-4-12 1-18 3-2 3-5 2-8l-1-21c0-4-1-5-6-3h-1l-1-1v-2l-2-8c1-6 0-8-5-8l-6-6a50 50 0 0 0-49-12c-34 8-50 45-44 73 6 23 20 38 44 43 11 3 22 1 32-4l9 6-17 26m-72-128-3 1c-2 1-3 3-2 5l3 3 5-2c1-6 7-8 11-12l27-26c2-3 5-5 9-4 3 1 6-1 6-5s-2-6-5-7c-4 0-6 2-7 6 0 2-2 4-3 5-2 3-5 5-8 6l-2-2c-2-3-3-1-4 1l-24 23-2 6-1 2m114-17-1-9-3-5v-2l6-1-1-5-4-1-2 5-1 3-12-12c-6-7-13-11-22-9-2 0-4-1-5-3-3-2-6-4-9-1-3 2-3 5-1 8 3 3 6 3 9 1 3-4 6-3 9 0l9 8 25 25-2 4 1 6c1 1 5 0 5-1l1-5-2-6m-146 63c1-3 1-6-3-6-2 0-5 2-5 4 0 3 3 5 6 4l1 1c-7 4-9 11-8 19v5c0 5 1 7 7 6 9 0 7-1 8 8v9l2 5 26 26c2 2 4 2 6-1 5-4 11-8 15-14 2-1 2-5 1-7s-5-3-7-2-2 5-3 7l1 3-12 13c-4-6-8-12-13-16-10-7-15-16-13-29v-1c0-3-1-4-4-4h-10v-7c-1-8 1-14 8-19l12-12c1-1 4-1 5-3l4-4c0-2-2-5-4-5l-5 4c0 4-2 6-4 8l-11 8m49 94c-4 0-7 1-11-2l-33-33c-5-4-8-8-7-15v-6h-2l-1 11c-4-1-8-2-9 2-1 2 0 6 1 7 4 4 7 1 10-2l13 14c3 3 3 9-1 12-3 2-3 5-1 9 2 2 5 3 8 1 3-3 3-6 1-9l-2-8h1l11 10c7 10 17 13 29 13 9-1 15-3 21-10 3-3 5-8 11-9 1 0 3-4 2-5 0-2-3-4-4-3-2 0-3 2-5 4l-3 6c-6 11-16 15-29 13z"/><path fill="#BDCDD2" d="m461 519-9 6-4 2v-4c10-22 14-45 14-69 0-11-3-22-10-32l1-7c4 5 8 8 10 12 10 13 15 28 15 44 0 12 0 25-3 38l-14 10z"/><path fill="#23E0EB" d="m223 496-3-1 10-19 16-35 8-11a16383 16383 0 0 1 95-91h14c4 0 8 0 11-4 2-3 6-2 9 0 4 3 4 8 1 11-3 2-7 4-9 1-4-5-8-4-12-4-11-2-19 2-27 10l-78 79c-6 6-10 13-13 21l-16 35-1 1-1 2-4 5m152-155 4 3 3-3-2-4-5 4z"/><path fill="#0E1122" d="m461 519 14-9 8-5 4-2 17-3 4-1h10l4-1h20l3 1h7l3 1h4a594 594 0 0 1 21 5 3030 3030 0 0 0 19 13l-1 5-22-13c-2-1-5-3-8-3l-47-3c-18 0-35 3-50 15l-7 4-3-4z"/><path fill="#2EDFE9" d="m487 503-3 2-1-46c0-5-2-9-4-13-2-3-4-6-4-9v-33c0-3-2-6-3-8l-8-8c-5-4-10-4-15 0-3 3-7 3-10 0-3-2-3-7 0-10s8-3 10 0 5 4 8 3c3 0 7 1 9 4l2 2c10 6 12 16 11 27v15c-1 7 0 14 5 19 2 2 3 6 3 9v46m-42-123-4 3 1 3h4l-1-6z"/><path fill="#29DFEB" d="M287 613c3 3 6 7 11 7 3 0 6 4 5 8s-4 6-8 5c-4 0-7-4-6-7 1-4-1-7-3-9l-17-21-7-15-5-18c-1-4-2-6-6-8-3-1-4-6-2-9 2-4 6-5 9-3 4 2 5 7 3 10-3 3-2 6-1 9l3 10c3 17 14 28 24 41m-35-61h5l1-4-4-2-2 6m45 77c3-3 3-6 0-6l-4 2c-1 3 1 5 4 4z"/><path fill="#C4D1D5" d="M487 503v-9l16-13 1 18-17 4z"/><path fill="#23E0EB" d="M282 373c-5-1-6-5-5-9 1-3 4-5 8-4s6 4 5 7c0 4-3 6-8 6m-1-9 1 5h3l2-3-6-2z"/><path fill="#070B1E" d="m598 523 1-5a213 213 0 0 1 16 10l-1-2c-6-15-11-31-13-48-2-19-3-38 8-55 15-19 35-26 58-22 17 2 32 10 44 22 10 9 18 19 27 29l35 42c9 10 17 19 20 32 4 17 1 32-5 48a75 75 0 0 1-72 50c-13 1-25-4-36-11l-17-17-13-18-22-29-26-23-4-3m45 32v1l1 8 12-1 2 1c20 7 38 3 54-11 16-15 21-33 17-54-4-22-16-38-36-47-23-10-49-3-64 18-3 4-5 11-7 16h-1l-1 2v2h-1l-2 11c-1 8-5 16 1 24v1c2 10 6 18 16 20v1l9 8m92-90-1-3-29-29c-2-2-3 0-4 2l-3 1c-3-4-8-7-9-13-1-3-4-4-8-3-3 1-4 4-3 7 0 3 3 6 6 4 4-1 6 1 8 3l28 27 11 13c2 2 4 2 7 0 2-2 1-5-3-9m-113-29-2 12-2 6 1 7h5c1-2 2-5 1-6-3-3-1-5 1-7l29-29c4-4 6-4 11-1 3 2 6 2 9-1 2-3 2-6-1-8s-6-2-8 1l-5 2h-8c-4 0-7 1-9 4l-16 15-4 1c2-3 2-5-1-6-2-1-4 0-5 1-2 3-1 5 2 7l2 2m63 155-1-3c0-3-1-5-4-5-2 0-5 3-5 3l4 6 5 3c8 12 19 16 33 15 6-1 11-2 16-7l16-16h2l-3 8c-1 4-2 7 2 9 2 1 6 0 7-2 3-2 2-6-1-8s-4-9-1-12l13-14c3 3 6 5 10 2 1-1 3-5 2-6-2-3-6-4-10-6v-9l-2-1-1 3v8c1 4-1 7-4 10l-35 34-4 3c-12-1-26 4-35-10l-4-5m81-77v1l-15-15-1-3-4-4c-1-1-5 2-4 3 0 2 2 4 4 5 1 2 3 2 5 3l13 13c9 6 6 16 6 25h-9c-3 0-5 1-5 5 3 13-3 23-13 30l-4 4c-11 10-11 10-21 0v-1l2-3c1-4 0-7-4-8-2-1-5 1-7 2-2 3-1 6 2 8l13 13c3 3 5 3 8 0l24-24c2-1 3-5 3-7l1-15h10c3 0 4-1 4-5v-12c0-5-1-9-4-12v-3c3-1 4-4 3-6s-4-3-6-2c-3 2-3 4-1 8z"/><path fill="#BACAD0" d="M609 422c-11 18-10 37-8 56a219 219 0 0 0 13 50l-14-10-12-8c-5-22-6-43 1-64 4-13 12-23 19-28l1 4z"/><path fill="#29DFEB" d="M831 473c3 9 8 18 15 26v5l-13-15-21-48-6-8-88-87c-2-2-5-4-9-3h-10c-4 0-8-1-11 3-2 4-7 3-10 0-2-4-2-8 1-10 3-3 7-4 10 0 2 3 5 4 8 3 13-2 23 2 32 12 27 28 55 54 81 82 6 6 9 15 13 24l8 16M685 344l2-5-4-2-3 3 5 4z"/><path fill="#23E0EB" d="m836 515-3-5c-7-6-11-13-16-21l-29-49-3-4-50-49c-7-7-16-13-24-18-1-1-3-2-5-1-5 1-9-1-10-6 0-3 2-7 6-8 5-1 8 2 9 7 0 2 1 4 3 5 28 18 51 44 74 68 9 10 14 22 21 33l17 29 8 10a645 645 0 0 1 12 14v2l-1 2-8-8-1-1M706 359h-5v4l3 1 2-5z"/><path fill="#2EDFE9" d="m580 505-4-2v-46c0-5 1-9 4-12s4-6 4-10v-33l3-7 8-8c4-4 8-7 14-6l4-2c3-3 7-4 11-1 3 2 3 8 0 10-3 3-8 3-11 0-3-4-9-4-13-1l-10 10-2 6v33c0 4-1 8-4 11s-4 7-4 11v47m41-125-5 2v3l4 1 1-6z"/><path fill="#23E0EB" d="m802 560-1-6c-2-4-1-8 2-11 4-2 8-1 10 3 3 4 1 8-3 10l-4 5-8 26-5 10-18 21c-1 2-2 5-1 7 0 5-2 8-6 8-4 1-8-2-9-6 0-4 3-7 7-8 2-1 5-2 6-4a440 440 0 0 0 23-30l7-25m-35 63-4 3 3 3c1 1 3 0 3-1 1-2 0-3-2-5m40-77-3 4 3 3 3-2c0-2-1-3-3-5z"/><path fill="#BDCDD2" d="M576 494v9l-17-3v-19l17 13z"/><path fill="#0C0E22" d="M846 524v-2l1-1c3-2 4-6 8-5v15l-1 10-5 6-3 3v-26z"/><path fill="#BCD7DB" d="m846 518-12-12-1-16 13 14v14z"/><path fill="#29DFEB" d="M776 373c-4-2-5-5-3-9 1-2 5-4 7-4 2 1 5 4 5 6 2 5-3 8-9 7m2-3c3-1 4-2 3-5h-4c-2 1-2 3 1 5z"/><path fill="#BDCDD2" d="m845 524 1 10-9-18 8 8zM836 515l1 1-1-1z"/><path fill="#29DFEB" d="M515 499h-4l-1-19 1-32c1-12-1-22-12-29-2-1-4-5-4-8v-30c0-4-1-7-4-9l-44-42c-2-2-3-5-3-8l-2-6c-3-2-3-5-3-8 4-4 7-5 10-2 3 2 3 6 0 10-3 3-2 9 2 13l44 42c2 2 4 5 4 8v33l1 5h2v-45c1-3-1-6-3-8l-34-32c-4-4-6-7-5-12 0-5 1-9-4-12-3-3-2-8 1-10 4-3 7-2 10 0 3 3 2 7 0 10-5 5-4 16 0 21l36 34c2 2 3 5 3 7v44c0 5 1 9 5 11 3 3 4 5 4 9v65m-54-199-2 5 3 2 3-3-4-4m-18 8c-1 3-1 5 2 6l3-3c0-2-1-4-5-3z"/><path fill="#28DEE9" d="m552 499-4-1v-63c0-4 1-7 4-9 4-3 5-6 5-11v-43c0-4 1-7 4-10l35-33c4-5 5-16 0-20-3-3-3-8 0-11s8-3 10 1c3 3 2 7-1 10l-2 7c1 8-2 14-8 19l-31 29c-2 2-4 6-4 9v44h2l2-5v-30c0-6 1-9 5-13l43-40c5-5 5-8 1-14-3-3-2-8 1-10s7-1 10 4l-2 7-3 6c0 3-1 6-4 8l-43 42c-3 2-4 5-4 9v26c1 6-1 12-7 15l-7 7-2 4v66m53-196-4-3-3 2 1 4 6-3m10 9 4 1s2-2 1-3l-2-2-3 4z"/><path fill="#EEFCFB" d="M439 308c0 3 0 6 3 8l2 6c0 3 1 6 3 8l44 42c3 2 4 5 4 9v30c0 3 2 7 4 8 11 7 13 17 12 29l-1 31-2-1v-38c0-4-1-6-4-9l-6-5c-8-5-10-11-9-19v-16c1-8-2-14-8-19l-40-39c-3-3-4-6-4-10v-15h2zM552 478v-45l2-4 7-7c6-3 8-9 7-15v-26c0-4 1-7 4-9l43-42c3-2 4-5 4-8l3-6 2-7 2-2v19a4046 4046 0 0 1-48 50c-3 3-4 6-4 9a627 627 0 0 1-3 35l-9 8c-6 4-7 9-7 16v34h-3z"/><path fill="#26DDE7" d="M480 218v31c-1 5 1 9 4 11 5 4 7 9 7 15l-1 29c0 4 1 6 4 9l6 5c2 2 4 4 8 2 3-2 7 0 9 4 1 3-1 8-4 9-4 1-9 0-10-4 0-4-4-7-7-9-7-6-10-13-9-22v-23c0-5-1-9-5-12-5-4-6-8-6-15v-56l2-3 1 3 1 22v4m33 108-4-3-2 3 1 3c2 0 4-1 5-3z"/><path fill="#28DEE9" d="M583 199v-7l2-2 2 2v58c0 5-1 9-5 12-5 4-6 9-6 15v29l-3 8-10 9-2 4c-2 5-5 7-9 6s-7-5-6-9c2-4 6-6 10-4 3 1 4 0 6-1 9-6 12-14 11-24l-1-20c0-6 1-10 6-14 4-3 5-8 5-13v-49m-26 128-4-4-3 2 1 4 6-2zM613 260l-23 22c-1 2-3 5-3 8v18l-1 5h-1l-2-5v-21l3-6 21-20c1-2 3-5 3-8a757 757 0 0 0-2-40c-4-4-4-9-1-12 3-2 8-2 10 1 4 3 3 7 0 11-2 1-3 3-3 5v36l-1 6m1-56-5 1 1 4 4 1v-6z"/><path fill="#23E0EB" d="M458 209c-6 5-5 12-5 18v26c0 3 2 6 3 8l20 20c2 2 3 5 3 8l1 19-1 5h-2l-1-5v-18c0-3-1-6-4-8l-18-18c-3-3-5-6-5-11a907 907 0 0 0-2-40c-3-2-4-6-2-9 1-2 5-4 7-4 5 0 7 4 6 9m-9 0 5-1-1-4h-4v5z"/><path fill="#BCD7DB" d="M542 498h-20v-26c6-2 12-3 19 0l1 26z"/><path fill="#2EDFE9" d="M495 210v39l2 7 2 6v17l-1 4-3-4v-12c1-4 1-9-3-12l-1-4v-60l2-4 2 4v19z"/><path fill="#26DDE7" d="M542 498v-26l-1-44c0-3 0-5-3-7s-3-7 0-10 6-3 9 0c4 2 4 7 1 10-3 2-3 5-3 9v69l-3-1m3-80-1-5-3 1-1 3 5 1zM521 471l1 27h-4l-1-18 1-55-3-4c-3-3-3-7 0-10s8-2 10 1c3 3 2 7-1 10l-3 6v43m1-53-1-5-3 1-1 3 5 1zM572 225v25l-3 7-2 6v16l-1 4h-1l-1-3v-19l1-4c4-3 3-8 3-13v-54l1-3 2 3 1 19v16z"/><path fill="#2EDFE9" d="M555 205v13c0 4 0 7 4 9 3 3 3 8 0 10-3 3-7 3-10 1-3-3-3-7-1-11 2-2 3-4 3-7v-31l2-4 2 4v16m2 27-4-3-3 4 3 3 4-4z"/><path fill="#23E0EB" d="m510 185 2 4-1 31c0 3 1 5 3 7 3 4 3 8-1 11-2 2-7 2-9-1-3-3-3-8 1-11 2-1 3-4 3-7v-30l2-4m-5 47 5 4 2-3-2-4-5 3z"/><path fill="#BCD7DB" d="M545 499v-25h3v24l-3 1zM517 480l1 18-3 1v-19h2z"/><path fill="#090C1F" d="M646 675c12 0 19 6 19 18l-3-2c-5-5-5-5-10 1-9 13-19 23-34 30-15 6-30 6-46 2-5-2-11-2-17-2h-55l-14 2c-30 8-53-3-72-26l-5-8c-3-4-5-3-8 0l-4 3c0-11 5-16 16-18l3 2-2 2c-4 2-4 5-1 8l10 11c30 30 75 18 99 1 4-3 6-18 3-22l-1-1-21-12-34-17c-11-10-14-26-5-30l1 5c11-11 24-15 38-12 19 4 38 3 57 0 14-2 26 0 35 11l2 1 2-5 1-1c1 3 3 5 3 8 1 10-4 17-11 23l-15 8-35 18c-5 2-6 6-6 11-1 10 3 16 11 20l25 10c31 8 59-2 77-27 2-3 3-6-2-8l-1-4m-174-38-1 1 1 1 1 1 5 5c10 3 19 6 28 12 2 2 6 0 7-4 1-5-4-13-10-14l5 5c1 3 3 6 0 8-1 1-5-1-7-1l-11-6-17-7-1-1m117 1-11 6c-7 2-14 3-20 8h-5v-5l4-6-1-2-6 8c-1 3-1 7 1 9 2 3 5 1 8-1l20-8c4-2 9-4 12-9l-1-1-1 1m-74-20-9-1c-8-2-15-4-23 0l-6 4 1 2 4-1c6 0 13-1 19 1 20 7 40 7 60 0 6-3 13-3 20-1l3 1c0-5-3-6-6-7h-16l-18 1c0-5-4-3-6-3h-17c-3 0-5 1-6 4m44 22-1-1 1 1z"/><path fill="#FEFEFD" d="M550 774c-13 9-27 8-40 0l-4-2v6l-17-13v7c-7-4-10-11-14-18l-2 9h-2l-9-17-3 4-3-7c50-16 100-14 150 0l-3 9-2-7-11 18h-1l-2-9-12 18-2-1-1-6-17 13v-6l-5 2z"/><path fill="#12D9E9" d="m297 663-1-4h3l24 5c1 5-2 5-5 4l-21-5zM739 666l22-6c2-1 5-2 6 1l-24 8-4-3z"/><path fill="#FCFDFD" d="M593 647c6-6 11-13 10-23 0-3-2-5-3-8l-1 1-2 5-2-1c-9-11-21-13-35-11-19 3-38 4-57 0-14-3-27 1-38 12l-1-5c-9 4-6 20 5 30l2 5 28 18 12 9c5 3 5 8 0 13v-5l-11 10v-4l-17 10-1-1 5-5c-7 2-13 7-22 7l6-6c-8 1-15 5-23 1l6-4-21-3 6-3-19-6 4-4-9-7-2-3c-3-8-5-9-13-7l-8 3 5-20-1-1-10 8h-1c3-9 5-17 9-25l13-30 31-45 16-17 2-5 8-7 7-4c15-12 32-15 50-15l47 3c3 0 6 2 8 3l22 13 4 4 7 9 16 16 21 32 11 17 8 19c5 11 9 21 11 34l-10-10-1 1 5 18-15-1c-2 0-4 4-6 6l-4 6-7 5 4 2v2l-18 5 5 3c-7 5-15 2-22 4l6 4-1 1-21-1 5 5-4-1a497 497 0 0 1-16-6l3 5-17-9 1 5h-1l-11-11 1 6c-7-7-7-12 2-17 9-6 19-11 28-18 5-3 7-7 11-11m-13-122-2-3 15 71 1-1c-3-22-6-45-14-67m-99 13 3-14-1-1c-9 22-11 46-15 69 2-2 3-4 3-7l10-47m124 12 22 25 1-5-5-6-25-25-3-1 1 3 9 9m-147-1c10-9 10-9 8-12-12 10-22 21-31 33v3l3-1 20-23z"/><path fill="#BDCDD2" d="m438 552-31 45-6-3a814 814 0 0 1 33-44l4 2zM415 672l9 7-4 4 19 6a93 93 0 0 0-16 9l-10-11c-3-3-3-6 1-8l2-2-3-2 2-3z"/><path fill="#0B0E1F" d="M846 519v-22c6 0 7-4 7-7l2-8v34c-4-1-5 3-8 5l-1-1v-1z"/><path fill="#0C0E22" d="m855 482-2 8c0 3-1 7-6 7l-1-25 8-3v3l1 6v4z"/><path fill="#0E1122" d="m204 238 4-9c1-2 4-3 0-5l4-3 1 2c4 2 4 5 1 8l-4 7c-2 2-4 3-6 0zM850 221c2-1 5 1 4 3-3 4 0 6 2 9l2 4c-3 4-5 4-7 0l-2-4c-4-6-4-6 1-12z"/><path fill="#12D9E9" d="m774 707-25 21-5 1c-6-4-7-9-1-14l18-16c3-2 5-4 9-2s4 5 4 10m-17 10 12-9c2-2 3-5 0-7l-5 1-12 9-8 9v4h4l9-7zM320 728c-3 0-7 0-10-2l-18-14c-4-3-6-7-4-13 4-3 7-4 11 0l21 16c4 4 4 9 0 13m-14-10 7 6h5v-6l-21-16h-5l1 5 13 11z"/><path fill="#0E1122" d="m814 632 5-2v7l-5 4c-4-2-2-5 0-9zM250 637l-3 4-6-7 2-4 4 1 3 6z"/><path fill="#0C0E22" d="M390 225c3 2 3 4 0 6l-11 8-5-1v-5l16-8z"/><path fill="#0E1122" d="m683 230 5 4v5h-4l-13-8-1-5c1-1 4-2 5-1l8 5z"/><path fill="#E1FCFB" d="M362 360c0 4-1 6-4 4l-2-4c2-3 4-3 6 0z"/><path fill="#BCD7DB" d="M552 478h3v21h-3v-21z"/><path fill="#E1FCFB" d="m508 479 2 1 1 18-3 1v-20z"/><path fill="#0E1122" d="m242 683-2-1c-3-2-5-5-3-8 1-1 5 0 6 1 2 2 4 5-1 8zM825 675l1 2c-1 4-3 6-7 5-1 0-2-4-1-5 1-3 3-5 7-2z"/><path fill="#15EFF3" d="M864 515c-4-1-5-3-4-6 1-1 3-4 4-3 2 0 4 2 4 4 1 3 0 5-4 5z"/><path fill="#29DFEB" d="M196 515c-1-3-3-5-2-7 0-1 3-3 5-3 1 1 3 3 3 5 1 3-1 5-6 5z"/><path fill="#0B0E1F" d="m846 550 3-3 5-6 1 9v6l-1 29-1-9c0-5 0-6-6-4l-1-22z"/><path fill="#E1FCFB" d="m682 290 2-5h3l1 4-6 1zM736 318l1-6 4 1v4l-5 1zM322 312l5 3-1 3h-4v-6zM380 285l-1 6-4-1v-4l5-1z"/><path fill="#52636F" d="m756 189 4-3 1 4-5-1z"/><path fill="#0B0E1F" d="m855 478-1-5h1v5z"/><path fill="#52636F" d="M300 189c0-3 2-4 4-3l1 4-5-1z"/><path fill="#BDCDD2" d="M773 260c0-1 0 0 0 0z"/><path fill="#B4C6CD" d="m579 702-3-5 16 6 4 1-5-5 21 1 1-1-6-4c7-2 15 1 22-4l-5-3 18-5v-2l-4-2a314 314 0 0 1 8-4l1 4c5 2 4 5 2 8a67 67 0 0 1-77 27l-25-10c-8-4-12-10-11-20 0-5 1-9 6-11l35-18 15-8c-3 4-5 8-10 11-9 7-19 12-28 18-9 5-9 10-2 17l-1-6 11 11h1l-1-5 17 9h1-1z"/><path fill="#C4D1D5" d="m657 601-11-17-21-32 3-3 22 29 12 17-5 6z"/><path fill="#364C5A" d="M409 562c-10 5-21 7-32 4-24-5-38-20-44-43-6-28 10-65 44-73 18-5 35-1 49 12l6 6 5 8 2 7-5-5-2-3-4-5-15-10c-8-5-17-5-26-5-13 0-25 6-34 15a53 53 0 0 0-14 53c4 14 12 25 25 31l18 7h13l5-1h2l2-1 4-1 4-2h4l-7 6z"/><path fill="#14D2DC" d="M346 606c13 2 23-2 29-13l3-6c2-2 3-4 5-4 1-1 4 1 4 3 1 1-1 5-2 5-6 1-8 6-11 9-6 7-12 9-21 10-12 0-22-3-29-13l-11-10h-1l2 8c2 3 2 6-1 9-3 2-6 1-8-1-2-4-2-7 1-9 4-3 4-9 1-12l-13-14c-3 3-6 6-10 2-1-1-2-5-1-7 1-4 5-3 9-2l1-11h2v6c-1 7 2 11 7 15l33 33c4 3 7 2 11 2z"/><path fill="#14D2DC" d="m297 513 11-9c2-2 4-4 4-8l5-4c2 0 4 3 4 5l-4 4c-1 2-4 2-5 3l-12 12c-7 5-9 11-8 19v7h10c3 0 4 1 4 4v1c-2 13 3 22 13 29 5 4 9 10 13 16l12-13-1-3c1-2 1-6 3-7s6 0 7 2 1 6-1 7c-4 6-10 10-15 14-2 3-4 3-6 1l-26-26-2-5v-9c-1-9 1-8-8-8-6 1-7-1-7-6v-5c-1-8 1-15 8-20l1-1z"/><path fill="#0A0F24" d="m409 562 7-6 2-2 6-5c7-5 12-12 15-20l2-8c4-10 4-21 0-31v-3c5-2 6-1 6 3l1 21c1 3 1 6-2 8-5 6-4 12-1 18l-12 13-15 18-9-6z"/><path fill="#1AD1DD" d="m438 433 1 3v4l-23-23-6-2-1 1 6 7v3l-9-8c-3-3-6-4-9 0-3 2-6 2-9-1-2-3-2-6 1-8 3-3 6-1 9 1 1 2 3 3 5 3 9-2 16 2 22 9l13 11z"/><path fill="#15C3CE" d="m362 437 8-7c1-1 3-3 3-5 1-4 3-6 7-6 3 1 5 3 5 7s-3 6-6 5c-4-1-7 1-9 4l-28 26-1-3 21-21z"/><path fill="#071F33" d="M441 490c4 10 4 21 0 31l-2 8c-3 8-8 15-15 20l-6 5-2 2h-3l7-7 10-10c6-5 7-13 9-20 4-12 3-24-3-35l-2-6 5 6v2l1 1 1 3z"/><path fill="#15C3CE" d="M439 440v-4l3 4v10h-3a3699 3699 0 0 1-24-27l24 22h1l-1-5zM330 463l2-5 24-23c1-2 2-4 4 0l-25 25-5 3z"/><path fill="#071F33" d="m330 463 5-3 25-25 2 2-21 21-11 8v-3z"/><path fill="#CAD7DC" d="m434 550 11-13 10-7-1 5-16 17-4-2z"/><path fill="#14D2DC" d="m330 466 11-8 1 3c-3 4-9 6-10 12l-5 2-3-3c-1-2 0-4 2-5l4-1z"/><path fill="#12D9E9" d="M440 450h2l3 5-1 5c0 1-4 2-5 1l-1-6 2-5z"/><path fill="#14D2DC" d="M438 433v-2l2-5 4 1 1 5-7 1z"/><path fill="#16CBD5" d="M296 514h-1c-3 1-6-1-6-4 0-2 3-4 5-4 4 0 4 3 3 7l-1 1z"/><path fill="#0A0F24" d="m437 476-5-8c5 0 6 2 5 8z"/><path fill="#0E1122" d="m448 527 4-2-1 5-3-3z"/><path fill="#364C5A" d="m441 490-1-3h1v3zM439 486v-2 2z"/><path fill="#EEFCFB" d="m375 340 5-3 2 4-3 3-4-4zM446 380v6h-4l-1-3 5-3z"/><path fill="#E1FCFB" d="m252 551 2-5 4 2-1 4-5-1zM297 630c-3 0-5-2-4-5l4-2c3 0 3 3 0 7zM282 364l5 2-2 3h-3v-5z"/><path fill="#384E5E" d="M622 486c2-5 4-12 7-16 15-21 41-28 64-18 20 9 32 25 36 47 4 21-1 39-17 54a50 50 0 0 1-54 11l-3-1-7-6 6 1c16 6 32 5 46-5 9-5 16-12 19-22l1-3 2-4c7-18 0-42-15-56a53 53 0 0 0-56-9l-18 12-3 4-8 11z"/><path fill="#16CBD5" d="m769 514 1 3c3 3 4 7 4 12v12c0 4-1 5-4 5h-10l-1 15c0 2-1 6-3 7l-24 24c-3 3-5 3-8 0l-13-13c-3-2-4-5-2-8 2-1 5-3 7-2 4 1 5 4 4 8l-2 3v1c10 10 10 10 21 0l4-4c10-7 16-17 13-30 0-4 2-5 5-5h9c0-9 3-19-6-25l-13-13c-2-1-4-1-5-3-2-1-4-3-4-5-1-1 3-4 4-3l4 4 1 3 15 15 1-1h2z"/><path fill="#16CBD5" d="m685 592 4 4c9 14 23 9 35 10l4-3 35-34c3-3 5-6 4-10v-8l1-3 2 1v9c4 2 8 3 10 6 1 1-1 5-2 6-4 3-7 1-10-2l-13 14c-3 3-2 10 1 12s4 6 1 8c-1 2-5 3-7 2-4-2-3-5-2-9l3-8h-2l-16 16c-5 5-10 6-16 7-14 1-25-3-33-16l1-2z"/><path fill="#1AD1DD" d="m624 433 4-2 16-15c2-3 5-4 9-4h8l5-2c2-3 5-3 8-1s3 5 1 8c-3 3-6 3-9 1-5-3-7-3-11 1l-29 29c-2 2-4 4-1 7 1 1 0 4-1 6h-5l-1-7 2-6 2-13 2-2m16-9-14 14-4 6h1l30-29c-7 0-9 5-13 9z"/><path fill="#071F33" d="M719 531c-3 10-10 17-19 22-14 10-30 11-46 5l-6-1-3-1-2-1-9-9-10-15c-4-8-6-16-5-25l1-16v-1l1-1 1-2 8-11c-1 10-8 17-8 27 0 8 1 15 3 23 2 10 9 17 17 23 4 4 10 7 15 9 7 3 15 0 22 0 14 0 24-7 33-18l7-8z"/><path fill="#15C3CE" d="m719 460-27-26c-2-2-4-4-8-3-3 2-6-1-6-4-1-3 0-6 3-7 4-1 7 0 8 3 1 6 6 9 10 13l22 23-2 1z"/><path fill="#0A0F24" d="m620 490-1 16c-1 9 1 17 5 25l10 15c-10-2-14-10-16-20v-1c-6-8-2-16-1-24 0-4 1-7 3-11z"/><path fill="#16CBD5" d="M702 435c0-2 1-4 3-2a746 746 0 0 1 23 27l-26-25z"/><path fill="#071F33" d="m701 435 27 25 6 3 1 3h-5l-9-8-22-22 2-1z"/><path fill="#CAD7DC" d="m628 549-3 3-16-16-7-9 26 22z"/><path fill="#12D9E9" d="m721 459 9 7h5c4 3 5 6 3 8-3 2-5 2-7 0l-11-14 1-1zM685 592l-1 2-5-2-4-6s3-3 5-3c3 0 4 2 4 5l1 4zM769 514l-2-1c-3-3-3-5 0-7 2-1 5 0 6 2s0 5-4 6z"/><path fill="#14D2DC" d="m624 433-2 2-2-1c-3-2-4-4-2-7 1-1 3-2 5-1 3 1 3 3 1 7z"/><path fill="#0A0F24" d="m643 555 3 1 2 1 7 6-11 1-1-9zM634 546z"/><path fill="#BACAD0" d="m614 527 1 1h-1v-1z"/><path fill="#0A0F24" d="M620 489v1-1z"/><path fill="#E1FCFB" d="m685 344-5-4 3-3 4 2-2 5zM706 359l-2 5-3-1v-4h5z"/><path fill="#0B0E1F" d="m847 521-1 1v-1h1z"/><path fill="#0C0E22" d="M847 521h-1v-1l1 1z"/><path fill="#EEFCFB" d="m621 381-1 5-4-1v-3l5-1z"/><path fill="#E1FCFB" d="M768 623c1 2 2 3 1 5 0 1-2 2-3 1l-3-3 5-3zM808 546l2 5-3 2-3-3 4-4z"/><path fill="#EEFCFB" d="M778 370c-3-2-3-4-1-5h4c1 3 0 4-3 5z"/><path fill="#E1FCFB" d="m461 300 4 4-3 3-3-2 2-5zM444 308c3-1 4 1 4 3l-3 3c-3-1-3-3-1-6zM605 304l-6 2-1-4 3-2 4 4zM615 312l3-4 2 2c1 1-1 3-1 3l-4-1zM513 327l-5 2-1-3 2-3 4 4zM557 328l-6 1-1-4 3-2 4 5z"/><path fill="#EEFCFB" d="m615 204-1 6-4-1-1-4 6-1z"/><path fill="#E1FCFB" d="M449 209v-5h4l1 4-5 1z"/><path fill="#EEFCFB" d="m545 419-5-2 1-3 3-1 1 6z"/><path fill="#E1FCFB" d="m522 419-5-2 1-3 3-1 1 6zM557 232l-4 4-3-3 3-4 4 3zM505 232l5-3 2 4-2 3-5-4z"/><path fill="#B1C5CC" d="m423 698 10-6 21 3-6 4c8 4 15 0 23-1l-6 6c9 0 15-5 22-7l-5 5 1 1 17-10v5-1l11-10v5c5-5 5-10 0-13l-12-9 4-6 21 12 1 1c3 4 1 19-3 22-24 17-69 29-99-1z"/><path fill="#6EA5A9" d="m544 618 18-2h16c3 1 6 2 6 7l-3-1c-7-2-14-2-20 1-20 7-40 7-60 0-6-2-13-1-19-1l-4 1-1-2 6-4c8-4 15-2 23 0l10 2 28-1z"/><path fill="#BACAD0" d="m503 664-4 6-28-18-2-5 34 17z"/><path fill="#52636F" d="m473 639 17 6 11 6c2 0 6 2 7 1 3-2 1-5 0-8l-5-5c6 1 11 9 10 14-1 4-5 6-7 4-9-6-18-9-28-12l-5-5v-1zM590 638c-2 5-7 7-11 9l-20 8c-3 2-6 4-8 1-2-2-2-6-1-9l6-8 1 2-4 6v5h5c6-5 13-6 20-8l11-6h1z"/><path fill="#071F33" d="m544 618-28 1c0-4 2-5 5-5h17c2 0 6-2 6 4z"/><path fill="#52636F" d="m559 640-1-1 1 1zM473 639l-1-1 1 1zM590 638v-1 1zM472 638h-1 1z"/><path fill="#232631" d="M580 525c8 22 11 45 14 67l-1 1-15-71 2 3zM481 538l-10 47c0 3-1 5-3 7 4-23 6-47 15-69l1 1-3 14z"/><path fill="#2EDFE9" d="m604 550-8-9-1-3 3 1a1951 1951 0 0 1 30 31l-1 5-23-25z"/><path fill="#29DFEB" d="m458 550-20 22-3 1v-3c9-12 19-23 31-33 2 3 2 3-8 13z"/><path fill="#B4C6CD" d="M576 697z"/><path fill="#3BFDFE" d="m757 718-9 6h-4v-4l8-9 12-9 5-1c3 2 2 5 0 7l-12 10zM306 718l-13-11-1-5h5l21 16v6h-5l-7-6z"/><path fill="#FCFDFD" d="M579 702h1-1z"/><path fill="#072A3E" d="m434 478 2 6c6 11 7 23 3 35-2 7-3 15-9 20l-10 10-7 7h-1l-4 2-4 1-2 1h-2l-5 1h-2l-17-4-12-3c-13-6-21-17-25-31-5-20 0-38 14-53 9-9 21-15 34-15 9 0 18 0 26 5l14 11 1-1 4 5 2 3m-1 52c4-4 3-9 4-15l1-13c0-11-6-20-13-28l-8-6c-11-7-22-11-36-8l-9 4c-15 6-25 16-27 32-1 5-1 11-3 16l2 5-1 2c1 3 0 7 4 10l8 11 9 10h5l1 2c8 4 16 5 26 4h2l5-2h5l5-4h1l2-2h1l2-3h1c5-2 9-5 11-12l2-3z"/><path fill="#071F33" d="m364 554 12 3 17 4h-11l-18-7zM428 470l-1 1a298 298 0 0 1 1-1zM395 561l5-1-5 1zM408 558l4-2-4 2zM434 478l-2-3 2 3zM402 560l2-1-2 1z"/><path fill="#071F33" d="m439 440 1 5h-1a3832 3832 0 0 0-30-29l1-1 6 2 23 23z"/><path fill="#072A3E" d="m719 531-7 8c-9 11-19 18-33 18-7 0-15 3-22 0-5-2-11-5-15-9-8-6-15-13-17-23-2-8-3-15-3-23 0-10 7-17 8-27l3-4 18-12c17-9 41-5 56 9s22 38 15 56h-3l1-19c-1-9 1-19-7-26l-11-8c-11-8-23-14-38-11-13 3-24 10-32 21-2 2-1 5-3 7-5 7-4 15-4 23 0 20 14 34 30 42 9 4 18 3 27 2 9-2 16-6 22-13l15-16 1 2-1 3z"/><path fill="#071F33" d="M651 459zM720 528l-1-2v-2h3l-2 4zM633 471l-3 4 3-4zM640 423c4-3 6-8 13-8l-30 29h-1l4-6 14-15z"/><path fill="#FCFDFD" d="M500 697v1-1z"/><path fill="#085366" d="m370 551-1-1-14-16c-4-5-7-9-8-16-1-8-1-15 1-23 1-6 3-12 8-16l19-13c10-6 20-4 30-1 17 5 27 17 31 35 1 6 1 14-6 19 5-18 0-33-14-44a37 37 0 0 0-44-4 42 42 0 0 0-18 55c10 20 34 28 54 19 10-5 17-13 22-24l3 2-1 5-4 6-5 5-4 4-5 2c-7 5-15 9-25 7h-14l-5-1z"/><path fill="#073E51" d="m433 523-3-2v-2c7-5 7-13 6-19-4-18-14-30-31-35-10-3-20-5-30 1l-19 13c-5 4-7 10-8 16-2 8-2 15-1 23 1 7 4 11 8 16l14 16h-2l-12-11-8-11-3-9v-3l-1-4 2-16c2-16 12-26 27-32l9-4c14-3 25 1 36 8l8 6c7 8 13 17 13 28l-1 14-4 7zM375 552h14c10 2 18-2 25-7l5-2v2l-3 3h-1l-2 2h-1l-5 4a552 552 0 0 0-12 2l-5-1-15-3z"/><path fill="#073B4F" d="m375 552 15 3 5 1c-9 1-17 0-25-5l5 1zM419 545v-2l4-4a1328 1328 0 0 1 8-5c-2 6-6 9-12 11zM355 539l12 11h-3l-9-11zM433 523l4-7c-1 5 0 10-5 14v-2l1-5zM344 519l3 9c-4-2-3-6-3-9z"/><path fill="#073E51" d="M432 528v2l-1 4h-3l4-6z"/><path fill="#073B4F" d="m407 554 5-4-5 4zM397 556l5-2-5 2zM343 512l1 4-1-4zM416 548l3-3-3 3zM413 550l2-2-2 2zM719 524v2l-15 16c-6 7-13 11-22 13-9 1-18 2-27-2-16-8-30-22-30-42 0-8-1-16 4-23 2-2 1-5 3-7 8-11 19-18 32-21 15-3 27 3 38 11l11 8c8 7 6 17 7 26l-1 19m-11-45c-10-8-21-17-35-16-5 0-11 0-15 2-14 6-26 15-30 31l-1 4 2 16c1 9 4 17 11 22l4 4c8 5 15 11 25 10l15-1c4-1 9-2 12-5l16-17c5-7 5-16 5-24 0-10-2-19-9-26z"/><path fill="#14EEF3" d="M430 519v2c-5 11-12 19-22 24-20 9-44 1-54-19-10-19-2-44 18-55 15-8 30-7 44 4s19 26 14 44m-58-19 6-2c5-3 8-9 7-13s-3-6-7-7c-5 0-11 4-13 9-2 6 0 11 7 13m46-6v-4c0-4-3-7-7-7-3-1-5 1-6 5-2 3 0 7 3 9 4 2 7 1 10-3z"/><path fill="#085366" d="M708 479c7 7 9 16 9 26 0 8 0 17-5 24l-16 17c-3 3-8 4-12 5l-15 1c-10 1-17-5-25-10l-4-4c-7-5-10-13-11-22l-2-16 1-4c4-16 16-25 30-31 4-2 10-2 15-2 14-1 25 8 35 16m-40 70 9-1c21-3 36-21 35-43-1-21-19-39-40-39a41 41 0 0 0-4 83z"/><path fill="#EEFCFB" d="M372 500c-7-2-9-7-7-13 2-5 8-9 13-9 4 1 6 3 7 7s-2 10-7 13l-6 2zM418 494c-3 4-6 5-10 3-3-2-5-6-3-9 1-4 3-6 6-5 4 0 7 3 7 7v4z"/><path fill="#15EFF3" d="M668 549a41 41 0 0 1 5-83c20 0 38 18 39 39 1 22-14 40-35 43l-9 1m13-70c-4 4-5 8-3 13 3 5 10 9 14 7 4-1 6-4 6-8 0-6-9-15-17-12m-34 18c4 2 7 1 10-3 2-4 2-7-1-10-3-2-6-2-9 0-3 3-4 7-2 11l2 2z"/><path fill="#EEFCFB" d="M681 479c8-3 17 6 17 12 0 4-2 7-6 8-4 2-11-2-14-7-2-5-1-9 3-13zM646 497l-1-2c-2-4-1-8 2-11 3-2 6-2 9 0 3 3 3 6 1 10-3 4-6 5-11 3z"/></svg>
